<?xml version="1.0" standalone="no"?>
<!DOCTYPE svg PUBLIC "-//W3C//DTD SVG 20010904//EN"
 "http://www.w3.org/TR/2001/REC-SVG-20010904/DTD/svg10.dtd">
<svg version="1.0" xmlns="http://www.w3.org/2000/svg"
 width="156.000000pt" height="155.000000pt" viewBox="0 0 156.000000 155.000000"
 preserveAspectRatio="xMidYMid meet">

<g transform="translate(0.000000,155.000000) scale(0.100000,-0.100000)"
fill="#000000" stroke="none">
<path d="M205 1538 c-41 -15 -116 -70 -140 -105 -20 -27 -31 -50 -54 -106 -8
-19 -11 -187 -11 -552 0 -500 1 -527 20 -578 26 -70 75 -125 141 -162 l54 -30
565 0 565 0 51 27 c56 30 102 77 136 141 23 42 23 44 26 576 2 361 -1 538 -8
545 -5 5 -10 18 -10 28 0 30 -29 80 -74 126 -48 51 -84 72 -146 86 -64 14
-1076 18 -1115 4z m545 -310 l0 -73 -170 -95 -169 -95 -1 -68 0 -69 145 4 145
3 0 -57 0 -58 -145 0 -145 0 -1 -27 c-2 -24 -2 -25 -6 -5 -2 12 -11 22 -19 22
-8 0 -12 5 -9 10 3 6 1 10 -4 10 -6 0 -11 7 -11 15 0 8 -8 16 -17 16 -17 1
-17 2 0 6 9 2 17 9 17 14 0 18 -28 39 -44 33 -13 -5 -16 -31 -19 -152 -1 -81
-3 -30 -2 113 l0 260 225 132 c124 73 226 133 228 133 1 0 2 -33 2 -72z m347
-92 l173 -101 0 -67 0 -68 -60 0 c-60 0 -60 0 -60 29 0 27 -9 35 -87 82 -49
28 -98 58 -110 66 l-23 13 0 -125 0 -125 132 0 132 0 -59 -60 -59 -60 -72 0
-71 0 -7 -197 c-4 -109 -11 -202 -15 -206 -5 -5 -6 4 -3 19 l5 28 -23 -21
c-25 -24 -46 -21 -46 7 0 10 4 17 7 14 4 -2 10 0 14 6 3 5 -1 10 -10 10 -9 0
-15 6 -14 13 1 6 -3 23 -9 37 -10 24 -11 24 -11 -9 -1 -19 -3 -32 -6 -29 -9 8
-18 714 -10 813 l7 96 56 -32 c32 -17 135 -77 229 -133z m-350 -173 c-3 -2
-51 -2 -107 -1 l-103 3 104 61 104 62 3 -60 c2 -33 1 -62 -1 -65z m519 -438
c-3 -9 -182 -117 -268 -162 -5 -2 -8 27 -8 65 l0 69 80 47 80 46 0 56 c0 55 2
58 58 118 l57 62 3 -145 c1 -80 1 -150 -2 -156z m-859 103 c-3 -7 -5 -2 -5 12
0 14 2 19 5 13 2 -7 2 -19 0 -25z m343 -97 c0 -34 -4 -61 -8 -61 -12 0 -48 29
-36 30 5 0 16 -6 24 -12 12 -11 12 -10 0 5 -7 10 -37 31 -64 45 -70 37 -78 39
-31 7 59 -41 66 -52 15 -23 -25 14 -56 31 -70 38 -21 11 -22 14 -8 19 10 3 54
7 98 9 l80 4 0 -61z m-217 -15 c26 -15 47 -30 47 -32 0 -8 -95 45 -120 67
l-25 21 25 -14 c14 -8 46 -27 73 -42z m187 -112 c0 -2 -9 0 -20 6 -11 6 -20
13 -20 16 0 2 9 0 20 -6 11 -6 20 -13 20 -16z m77 -30 c-3 -3 -12 -4 -19 -1
-8 3 -5 6 6 6 11 1 17 -2 13 -5z m-87 -85 c17 -13 18 -17 5 -10 -33 17 -51 31
-40 31 6 0 21 -10 35 -21z m180 17 c0 -2 -25 -18 -55 -35 -45 -25 -59 -29 -75
-21 -11 6 -20 13 -20 16 0 2 9 0 20 -6 16 -8 30 -5 72 20 56 31 58 32 58 26z"/>
</g>
</svg>
